# xmcd CD database file
#
# Track frame offsets:
#	150
#	11199
#	24828
#	32052
#	97563
#	141039
#	193395
#	252997
#	265183
#
# Disc length: 3778 seconds
#
# Revision: 0
# Processed by: cddbd v1.5.1PL2 Copyright (c) Steve Scherf et al.
# Submitted via: CD2WAV32(JP) R3.22
#
DISCID=6f0ec009
DTITLE=麻績村まゆ子＆KAORI - おみまゆ・KAORIの「声優アイランド」
DYEAR=2000
DGENRE=Seiyu(J)
TTITLE0=本番前トーク
TTITLE1=ドリルでルンルン クルルンルン ～ライブバージョン～
TTITLE2=オープニング
TTITLE3=フリートーク
TTITLE4=おみまゆポエム
TTITLE5=みんな笑っちゃダメ!!
TTITLE6=しりとりトーク
TTITLE7=エンディング
TTITLE8=さいごに
EXTD=
EXTT0=
EXTT1=
EXTT2=
EXTT3=
EXTT4=
EXTT5=
EXTT6=
EXTT7=
EXTT8=
PLAYORDER=
